<svg version="1.2" xmlns="http://www.w3.org/2000/svg" viewBox="0 0 34 36" width="34" height="36"><style>.a{fill:#452ff4}</style><path class="a" d="m32.5 13.7c-0.5-0.7-0.8-2.3-0.7-3.2 0.1-2.3-1.1-4.5-2.9-5.5-0.4-0.1-0.7-0.2-1-0.3-0.4-0.2-0.6-0.2-0.8-0.6-1-2-2.1-2.3-4.1-2.1-0.2 0-0.4-0.3-0.7-0.6-0.4-0.5-1-1.1-2-1.2l-0.3-0.1c-1.2 0-2.4 0.5-3 1.2-0.3-0.4-0.7-0.7-1.2-0.9-0.8-0.4-1.5-0.5-2-0.2-1 0.2-1.6 0.8-2 1.2-0.4 0.4-0.6 0.6-0.8 0.6-2-0.2-3.1 0.1-4.1 2.1-0.2 0.4-0.4 0.4-0.8 0.6-0.3 0.1-0.6 0.2-1 0.3-1.8 1-3 3.2-2.9 5.5 0.1 0.9-0.2 2.5-0.7 3.2-1.1 1.8-1.1 4.3 0 6.1q0.3 0.4 0.8 1c0.5 0.7 1.4 1.8 1.4 2.3-0.2 2.3 1.2 4.9 3.1 5.8 0.3 0.2 0.3 0.3 0.5 0.9 0 0.3 0.1 0.6 0.3 1 0.5 1 1.3 1.3 1.9 1.5 0.5 0.3 0.8 0.3 0.8 1 0.3 2 1.6 2.7 2.8 2.7q0.1 0 0.2 0c1.4-0.1 2.9-1.2 3.7-2.9 0.8 1.7 2.3 2.8 3.7 2.9q0.1 0 0.2 0c1.2 0 2.5-0.7 2.8-2.7 0-0.7 0.3-0.7 0.8-1 0.6-0.2 1.4-0.5 1.9-1.5 0.2-0.4 0.3-0.7 0.3-1 0.2-0.6 0.2-0.7 0.5-0.9 1.9-0.9 3.3-3.5 3.1-5.8 0-0.5 0.9-1.6 1.4-2.3q0.5-0.6 0.8-1c1.1-1.8 1.1-4.3 0-6.1zm-19.3 21.1c-0.9 0-1.5-0.6-1.7-1.7-0.1-1.3-1-1.7-1.6-1.9-0.5-0.2-0.9-0.3-1.2-0.9-0.1-0.3-0.2-0.6-0.3-0.8q0 0 0 0 0.1-0.2 0.1-0.3c0-1.7 1.4-3 3.1-3 0.3 0 0.6-0.3 0.6-0.6 0-0.4-0.3-0.6-0.6-0.6-2 0-3.6 1.2-4.1 2.9q-0.1 0-0.2-0.1c-1.4-0.7-2.5-2.9-2.4-4.6 0.1-1-0.9-2.1-1.7-3.2-0.3-0.3-0.5-0.6-0.7-0.8-0.9-1.4-0.9-3.4 0-4.8 0.7-1 1-2.8 0.9-4-0.1-1.8 0.8-3.6 2.3-4.3q0.3-0.2 0.7-0.2 0.4-0.1 0.8-0.3 0 0 0.1 0c1.4 0 2.4 1.1 2.4 2.4 0 0.3 0.3 0.6 0.6 0.6 0.4 0 0.6-0.3 0.6-0.6 0-1.7-1.2-3.2-2.8-3.5 0.5-1.1 1-1.4 2.1-1.4q0.3 0 0.7 0.1c0.8 0 1.3-0.5 1.7-0.9 0.4-0.5 0.8-0.9 1.5-0.9l0.2-0.1 0.1-0.1c0.1 0 0.4 0 0.9 0.3 0.7 0.3 1.1 0.9 1.1 1.1v4.8c-2.4 0.3-4.2 2.4-4.2 4.8 0 2-1.7 3.7-3.7 3.7-0.3 0-0.6 0.2-0.6 0.6 0 0.3 0.3 0.6 0.6 0.6 2.7 0 4.9-2.2 4.9-4.9 0-1.8 1.3-3.2 3-3.5v21.7c0 2.7-1.9 4.3-3.2 4.4zm18.3-15.6c-0.2 0.2-0.4 0.5-0.7 0.8q-0.4 0.5-0.7 1c-0.7-1.9-2.5-3.3-4.6-3.3-2 0-3.7-1.6-3.7-3.6 0-0.4-0.2-0.6-0.6-0.6-0.3 0-0.6 0.2-0.6 0.6 0 2.6 2.2 4.8 4.9 4.8 2 0 3.6 1.6 3.6 3.6q0 0.1 0 0.2 0 0.3 0 0.5c0.1 1.7-1 3.9-2.4 4.6q-0.1 0.1-0.2 0.1c-0.5-1.7-2.2-2.9-4.1-2.9-0.3 0-0.6 0.2-0.6 0.6 0 0.3 0.3 0.6 0.6 0.6 1.7 0 3.1 1.3 3.1 3q0 0.1 0.1 0.3 0 0 0 0-0.1 0.4-0.3 0.8c-0.3 0.6-0.7 0.7-1.2 0.9-0.6 0.2-1.5 0.6-1.6 1.9-0.2 1.2-0.8 1.7-1.7 1.7-1.3-0.1-3.2-1.7-3.2-4.4v-27.8c0-0.5 0.9-1.2 2.1-1.2h0.3c0.6 0 0.9 0.3 1.4 0.8 0.5 0.5 1 1 1.7 1 1.6-0.1 2.1 0 2.8 1.3-1.3 0.3-2.2 1.5-2.2 2.9 0 0.3 0.2 0.6 0.6 0.6 0.3 0 0.6-0.3 0.6-0.6 0-1 0.8-1.8 1.8-1.8q0.1 0 0.1 0 0.4 0.2 0.8 0.3 0.4 0 0.7 0.2c1.5 0.7 2.4 2.5 2.3 4.3-0.1 1.2 0.2 3 0.9 4 0.9 1.4 0.9 3.4 0 4.8z"/><path class="a" d="m14.9 16.9c-0.2-0.3-0.6-0.3-0.9 0-0.8 0.8-1.2 1.9-1.2 3.1 0 0.9 0.3 1.9 0.9 2.6-0.6 0.8-0.9 1.7-0.9 2.7 0 1.2 0.4 2.3 1.2 3.1q0.2 0.2 0.5 0.2 0.2 0 0.4-0.2c0.2-0.2 0.2-0.6 0-0.9-0.6-0.6-0.9-1.3-0.9-2.2 0-0.8 0.3-1.6 0.9-2.2 0.2-0.3 0.2-0.7 0-0.9-0.6-0.6-0.9-1.4-0.9-2.2 0-0.9 0.3-1.7 0.9-2.3 0.2-0.2 0.2-0.6 0-0.8z"/><path class="a" d="m19.9 18.9c-0.2 0.2-0.2 0.6 0 0.8 1.1 1.2 1.1 3 0 4.1-0.8 0.8-1.2 1.8-1.2 2.9 0 1.1 0.4 2.1 1.2 2.9q0.2 0.2 0.4 0.2 0.3 0 0.5-0.2c0.2-0.2 0.2-0.6 0-0.8-0.6-0.6-0.9-1.3-0.9-2.1 0-0.8 0.3-1.5 0.9-2 1.6-1.6 1.6-4.2 0-5.8-0.3-0.3-0.7-0.3-0.9 0z"/><path class="a" d="m27.8 13.1c-1.6 0.3-3.1-0.7-3.4-2.3-0.1-1.1-0.7-2-1.6-2.7-0.9-0.6-2-0.8-3.1-0.6-0.3 0-0.6 0.3-0.5 0.7 0.1 0.3 0.4 0.5 0.7 0.5 0.8-0.2 1.5 0 2.2 0.4 0.6 0.5 1 1.1 1.1 1.9 0.4 2 2.1 3.4 4.1 3.4q0.3 0 0.7-0.1c0.3 0 0.5-0.3 0.5-0.7-0.1-0.3-0.4-0.5-0.7-0.5z"/><path class="a" d="m7.2 13.8c1 0 2-0.6 2.3-1.6 0.2-0.3 0-0.7-0.3-0.8-0.3-0.1-0.7 0.1-0.8 0.4-0.2 0.6-1 0.9-1.6 0.7-1.3-0.5-2.7 0.2-3.1 1.5-0.1 0.3 0 0.6 0.3 0.7q0.1 0.1 0.2 0.1c0.3 0 0.5-0.2 0.6-0.4 0.2-0.7 1-1 1.6-0.8q0.4 0.2 0.8 0.2z"/><path class="a" d="m9.2 23.1c-0.7-0.3-1-1-0.8-1.6 0.5-1.3-0.2-2.7-1.4-3.2-0.3-0.1-0.7 0.1-0.8 0.4-0.1 0.3 0 0.7 0.4 0.8 0.6 0.2 0.9 0.9 0.7 1.6q0 0 0 0c-0.5 1.2 0.2 2.6 1.4 3.1q0.1 0 0.3 0c0.2 0 0.4-0.1 0.5-0.4 0.1-0.3 0-0.6-0.3-0.7z"/></svg>